<?xml version="1.0" encoding="iso-8859-1"?>
<!-- Generator: Adobe Illustrator 19.0.0, SVG Export Plug-In . SVG Version: 6.00 Build 0)  -->
<svg version="1.1" id="Layer_1" xmlns="http://www.w3.org/2000/svg" xmlns:xlink="http://www.w3.org/1999/xlink" x="0px" y="0px"
	 viewBox="0 0 490.33 490.33" style="enable-background:new 0 0 490.33 490.33;" xml:space="preserve">
<g>
	<path d="M448.249,41.201c-33.5-33.5-133.6-77.4-225.8,12.5l-169.5,169.6c-65.6,65.5-70.8,166.4-12.5,224.7
		c0,0,96.9,101.4,225.8-11.4l170.6-169.6c32.3-31.2,51-71.8,53.1-113.4C492.949,110.901,478.149,71.101,448.249,41.201z
		 M238.149,408.401c-26,26-109.6,69.3-167.5,11.4c-63.2-63.2-13.5-143.6,10.4-168.5l70.7-70.7l156.6,157.5L238.149,408.401z
		 M407.649,238.901l-69.7,69.7l-157.1-157.1l69.7-69.7c80.1-72.3,148.8-30.2,167.5-11.4
		C418.049,70.301,493.349,141.401,407.649,238.901z"/>
</g>
<g>
</g>
<g>
</g>
<g>
</g>
<g>
</g>
<g>
</g>
<g>
</g>
<g>
</g>
<g>
</g>
<g>
</g>
<g>
</g>
<g>
</g>
<g>
</g>
<g>
</g>
<g>
</g>
<g>
</g>
</svg>
