<?xml version="1.0" encoding="iso-8859-1"?>
<!-- Generator: Adobe Illustrator 19.0.0, SVG Export Plug-In . SVG Version: 6.00 Build 0)  -->
<svg version="1.1" id="Layer_1" xmlns="http://www.w3.org/2000/svg" xmlns:xlink="http://www.w3.org/1999/xlink" x="0px" y="0px"
	 viewBox="0 0 489.567 489.567" style="enable-background:new 0 0 489.567 489.567;" xml:space="preserve">
<g>
	<g>
		<path d="M456.954,4.65c-31.2,22.9-64.5,34.3-98.8,34.3c-58.3,0-99.9-34.3-99.9-34.3c-7.3-6.2-19.8-6.2-27,0
			c-1,1-41.6,34.3-99.9,34.3c-33.3,0-66.6-11.4-98.8-34.3c-8.6-8.2-32.9-3.8-32.3,18.8c1,11.4,34.3,295.5,231,460.9
			c12.5,10,22.9,3.1,27,0c196.6-165.4,229.9-449.4,231-460.9C490.454,11.65,476.154-7.35,456.954,4.65z M244.754,442.65
			c-131.1-119.6-181-300.6-196.6-381.8c27,12.5,55.1,18.7,82.2,18.7c53.1,0,93.6-21.8,113.4-34.3c19.8,12.5,61.4,34.3,113.4,34.3
			c29.1,0,57.2-6.2,84.3-18.7C425.754,142.05,375.854,323.05,244.754,442.65z"/>
		<path d="M316.554,198.15h-51v-51c0-11.4-9.4-20.8-20.8-20.8c-11.4,0-20.8,9.4-20.8,20.8v51h-51c-11.4,0-20.8,9.4-20.8,20.8
			s9.4,20.8,20.8,20.8h51v51c0,11.4,9.4,20.8,20.8,20.8s20.8-9.4,20.8-20.8v-51h51c11.4,0,20.8-9.4,20.8-20.8
			S327.954,198.15,316.554,198.15z"/>
	</g>
</g>
<g>
</g>
<g>
</g>
<g>
</g>
<g>
</g>
<g>
</g>
<g>
</g>
<g>
</g>
<g>
</g>
<g>
</g>
<g>
</g>
<g>
</g>
<g>
</g>
<g>
</g>
<g>
</g>
<g>
</g>
</svg>
