<?xml version="1.0" encoding="iso-8859-1"?>
<!-- Generator: Adobe Illustrator 19.0.0, SVG Export Plug-In . SVG Version: 6.00 Build 0)  -->
<svg version="1.1" id="Layer_1" xmlns="http://www.w3.org/2000/svg" xmlns:xlink="http://www.w3.org/1999/xlink" x="0px" y="0px"
	 viewBox="0 0 489.117 489.117" style="enable-background:new 0 0 489.117 489.117;" xml:space="preserve">
<g>
	<path d="M354.895,2.211c0,0-62.9-5.7-109.2,64.5c-44.7-72.1-109.3-66.6-109.3-66.6c-73.9,0-132.1,69.7-136.3,161.3
		c-5.2,111.3,203.9,301.7,227.8,322.5c11.3,8.8,22.9,4.5,26,1c9.4-7.3,232-181,235.1-317.3
		C491.195,118.711,464.195,8.811,354.895,2.211z M41.695,163.511c3.1-68.7,44.7-122.8,95.7-122.8c39.5,1,74.9,33.3,88.4,83.2
		c3.1,8.3,10.4,14.6,19.8,14.6s17.7-6.2,19.8-14.6c13.5-47.9,49.9-80.1,89.5-80.1c66.5,0,96.3,78.1,93.6,122.8
		c-1.1,18.1-6.6,37.9-16.3,58.3h-43l-23.9-94.7c-4.7-18-27.6-21.5-37.5-5.2l-83.2,147.7l-36.4-119.6c-2.8-12.5-23.1-23.2-36.4-5.2
		l-49.9,75.9h-62.8C47.395,201.111,40.795,180.411,41.695,163.511z M242.495,442.311c-42.7-39.4-113-111-158.2-176.9h48.9
		c6.2,0,12.5-4.2,16.6-9.4l32.3-48.9l37.5,122.8c4.6,14.5,25.4,21.8,37.5,4.2l81.1-144.6l15.6,61.4c2.1,9.4,10.4,15.6,19.8,15.6
		h34.6C361.895,335.711,286.795,405.611,242.495,442.311z"/>
</g>
<g>
</g>
<g>
</g>
<g>
</g>
<g>
</g>
<g>
</g>
<g>
</g>
<g>
</g>
<g>
</g>
<g>
</g>
<g>
</g>
<g>
</g>
<g>
</g>
<g>
</g>
<g>
</g>
<g>
</g>
</svg>
