<?xml version="1.0" encoding="iso-8859-1"?>
<!-- Generator: Adobe Illustrator 19.0.0, SVG Export Plug-In . SVG Version: 6.00 Build 0)  -->
<svg version="1.1" id="Layer_1" xmlns="http://www.w3.org/2000/svg" xmlns:xlink="http://www.w3.org/1999/xlink" x="0px" y="0px"
	 viewBox="0 0 489 489" style="enable-background:new 0 0 489 489;" xml:space="preserve">
<g>
	<g>
		<g>
			<path d="M304.422,489h-120.7c-11.4,0-20.8-9.4-20.8-20.8v-67.6l-56.2,39.5c-9.4,6.2-21.8,4.2-28.1-5.2l-69.7-98.8
				c-3.1-4.2-8-17.9,5.2-29.1l89.5-63.5l-89.5-63.5c-4.2-3.1-13.9-15.1-5.2-29.1l69.7-98.8c14.5-10.5,23.9-6.2,29.1-3.1l55.1,39.5
				V20.8c0-11.4,9.4-20.8,20.8-20.8h120.7c11.4,0,20.8,9.4,20.8,20.8v67.6l56.2-39.5c14.5-8.7,26,1,29.1,5.2l69.7,98.8
				c8.4,13.9-0.5,25.9-5.2,29.1l-90.4,62.5l89.5,63.5c13.4,12.4,8.3,23.9,5.2,29.1l-69.7,98.8c-6.2,9.4-18.7,11.4-28.1,5.2
				l-56.2-40.6v68.7C325.222,479.6,315.922,489,304.422,489z M204.522,448.4h80.1V361c2.1-23.3,25.9-21.7,32.3-16.6l71.8,49.9
				l45.8-65.5l-96.8-68.7c-5.2-4.2-15.8-18.2,0-33.3l96.8-68.7l-45.8-65.5l-71.8,49.9c-8.9,6.8-30,4.6-32.3-16.6V40.6h-80.1V128
				c1,9.9-12.2,27.3-32.3,16.6l-71.8-49.9l-45.8,65.5l96.8,68.7c15.6,14,6,29,0,33.3l-96.8,68.7l45.8,65.5l71.8-49.9
				c20.6-12.1,33.4,9.6,32.3,16.6V448.4z"/>
		</g>
	</g>
</g>
<g>
</g>
<g>
</g>
<g>
</g>
<g>
</g>
<g>
</g>
<g>
</g>
<g>
</g>
<g>
</g>
<g>
</g>
<g>
</g>
<g>
</g>
<g>
</g>
<g>
</g>
<g>
</g>
<g>
</g>
</svg>
